<?xml version="1.0" encoding="UTF-8"?>
<!DOCTYPE svg PUBLIC "-//W3C//DTD SVG 1.1//EN" "http://www.w3.org/Graphics/SVG/1.1/DTD/svg11.dtd">
<!-- Creator: CorelDRAW X8 -->
<svg xmlns="http://www.w3.org/2000/svg" xml:space="preserve" width="23.7064mm" height="14.8164mm" version="1.1" style="shape-rendering:geometricPrecision; text-rendering:geometricPrecision; image-rendering:optimizeQuality; fill-rule:evenodd; clip-rule:evenodd"
viewBox="0 0 3039 1899"
 xmlns:xlink="http://www.w3.org/1999/xlink">
 <defs>
  <style type="text/css">
   <![CDATA[
    .fil0 {fill:#2980b9;fill-rule:nonzero}
   ]]>
  </style>
 </defs>
 <g id="Слой_x0020_1">
  <metadata id="CorelCorpID_0Corel-Layer"/>
  <path class="fil0" d="M1520 0c-663,0 -1238,386 -1520,950 282,563 857,949 1520,949 662,0 1237,-386 1519,-949 -282,-564 -857,-950 -1519,-950zm749 504c178,114 330,266 443,446 -113,179 -265,332 -443,446 -225,143 -484,218 -749,218 -266,0 -525,-75 -750,-218 -178,-114 -330,-267 -443,-446 113,-180 265,-332 443,-446 12,-8 24,-15 35,-22 -29,81 -45,169 -45,260 0,420 340,760 760,760 419,0 759,-340 759,-760 0,-91 -16,-179 -45,-260 11,7 23,14 35,22zm-749 143c0,157 -128,285 -285,285 -158,0 -285,-128 -285,-285 0,-157 127,-285 285,-285 157,0 285,128 285,285z"/>
 </g>
</svg>
